<?xml version="1.0" encoding="UTF-8" standalone="no"?>
<svg
   id="Vrstva_1"
   viewBox="0 0 580.1 460.4"
   version="1.1"
   sodipodi:docname="Ikonky_mapa_kniha_studovna-07.svg"
   inkscape:version="1.1.1 (3bf5ae0d25, 2021-09-20)"
   xmlns:inkscape="http://www.inkscape.org/namespaces/inkscape"
   xmlns:sodipodi="http://sodipodi.sourceforge.net/DTD/sodipodi-0.dtd"
   xmlns="http://www.w3.org/2000/svg"
   xmlns:svg="http://www.w3.org/2000/svg">
  <sodipodi:namedview
     id="namedview13"
     pagecolor="#ffffff"
     bordercolor="#666666"
     borderopacity="1.0"
     inkscape:pageshadow="2"
     inkscape:pageopacity="0.0"
     inkscape:pagecheckerboard="0"
     showgrid="false"
     inkscape:zoom="0.61587711"
     inkscape:cx="873.55089"
     inkscape:cy="20.296257"
     inkscape:window-width="1920"
     inkscape:window-height="991"
     inkscape:window-x="-9"
     inkscape:window-y="-9"
     inkscape:window-maximized="1"
     inkscape:current-layer="Vrstva_1" />
  <defs
     id="defs4">
    <style
       id="style2">.cls-1,.cls-2{stroke-width:0px;}.cls-2{fill-rule:evenodd;}</style>
  </defs>
  <g
     id="g947">
    <g
       id="g731">
      <g
         id="g490"
         transform="translate(587.84239,-4.5925186)">
        <ellipse
           style="fill:#000000;stroke-width:1.55263"
           id="path234"
           cx="-285.88431"
           cy="235.36658"
           rx="213.55211"
           ry="212.40399" />
        <ellipse
           style="fill:#ffffff;stroke-width:1.01563"
           id="ellipse464"
           cx="-286.45837"
           cy="235.36655"
           rx="206.08928"
           ry="204.36707" />
      </g>
    </g>
    <g
       id="g934"
       transform="matrix(0.92788522,0,0,0.92249094,19.011909,21.959695)">
      <g
         id="g498"
         transform="matrix(0.83648927,0,0,0.83266742,65.999483,18.307479)">
        <path
           class="cls-1"
           d="M 384.7,88.6 294.1,42.5 c -2.5,-1.3 -5.6,-1.3 -8.1,0 l -90.6,46.1 c -1.8,0.9 -3.2,2.5 -4,4.3 -0.6,1.1 -1,3 -1,4 v 53.2 c 0,5.1 4,9.2 9.1,9.2 5.1,0 9.1,-4.1 9.1,-9.2 v -42.4 l 81.7,34.6 93.8,-36.8 c 3.3,-1.3 5.5,-4.5 5.7,-8.2 0.1,-3.6 -1.8,-7 -5,-8.6 z"
           id="path492" />
        <path
           class="cls-1"
           d="m 290.1,158.7 c -1,0 -1.9,-0.2 -2.8,-0.6 L 238.8,137.3 V 160 c 0,2.9 1.6,5.5 4.1,6.7 12.6,6.5 25.5,14.5 47.2,14.5 21.7,0 34.7,-8 47.2,-14.5 2.5,-1.3 4.1,-3.9 4.1,-6.7 v -21.1 l -48.6,19.3 c -0.8,0.3 -1.7,0.5 -2.6,0.5 z"
           id="path494" />
        <path
           class="cls-2"
           d="m 321,385.1 c 45.4,2.1 89.9,13.6 130.6,33.8 V 231.4 c -2.2,-1 -4.3,-2 -6.5,-2.9 -1.4,-0.6 -2.7,-1.1 -4.1,-1.6 v 173 c 0,1.5 -0.8,2.8 -2.1,3.6 -1.3,0.8 -2.9,0.7 -4.1,-0.1 C 400,384.7 359.9,378.3 321,385.1 Z M 294.1,381 V 211.7 c 16.4,-13.2 36.2,-21.5 57.1,-24.1 20.9,-2.6 42.1,0.8 61.2,9.6 v 170.6 c -39,-16.6 -83.9,-11.6 -118.3,13.1 v 0 z M 167.7,197.2 v 170.6 c 39,-16.6 83.9,-11.6 118.3,13.2 V 211.7 c -16.4,-13.2 -36.2,-21.5 -57.1,-24.1 -20.9,-2.5 -42.1,0.8 -61.2,9.6 z M 420.6,210 c 1.6,0.6 3.2,1.2 4.8,1.8 2.6,1 5,2.1 7.5,3.2 v 178.3 c -36.7,-18.1 -78.4,-23.4 -118.5,-15.2 31.4,-15.7 68.4,-15.9 100,-0.6 0.6,0.4 1.4,0.6 2.1,0.6 2.2,0 4.1,-1.8 4.1,-4.1 v -164.1 0 z m -261,164.1 v 0 c 0,0.6 0.1,1.2 0.4,1.8 1,2 3.4,2.8 5.4,1.8 31.7,-15.5 68.8,-15.3 100.3,0.4 -40.1,-8.3 -81.8,-2.9 -118.5,15.2 V 215 c 2.4,-1.1 4.9,-2.2 7.5,-3.2 1.6,-0.6 3.2,-1.2 4.8,-1.8 v 164.1 0 z m 228.8,-147 v 0 c 2.2,0.4 3.6,2.5 3.2,4.7 -0.4,2.2 -2.6,3.6 -4.8,3.2 -23.6,-4.6 -48.2,-1.6 -70,8.6 -2,0.8 -4.3,-0.1 -5.2,-2.1 -0.9,-1.9 -0.1,-4.2 1.7,-5.3 23.4,-11 49.6,-14.2 75,-9.2 v 0 z m -121.6,9.2 c 1.9,1 2.6,3.3 1.7,5.3 -0.9,1.9 -3.2,2.8 -5.2,2.1 -21.8,-10.3 -46.3,-13.3 -70,-8.6 -2.2,0.4 -4.3,-1 -4.8,-3.2 -0.4,-2.2 1,-4.3 3.2,-4.8 25.3,-5 51.6,-1.7 75,9.2 v 0 z m 121.6,19.8 c 2.2,0.4 3.6,2.6 3.2,4.8 -0.4,2.2 -2.6,3.6 -4.8,3.2 -23.6,-4.6 -48.2,-1.6 -70,8.6 -2,0.8 -4.3,-0.1 -5.2,-2 -0.9,-1.9 -0.1,-4.2 1.7,-5.3 23.4,-11 49.6,-14.2 75,-9.2 v 0 z m -121.6,9.2 c 1.9,1 2.6,3.3 1.7,5.3 -0.9,1.9 -3.2,2.8 -5.2,2 -21.8,-10.2 -46.3,-13.2 -70,-8.6 -2.2,0.4 -4.3,-1 -4.8,-3.2 -0.4,-2.2 1,-4.3 3.2,-4.8 25.3,-5 51.6,-1.7 75,9.2 v 0 z m 121.6,19.8 c 2.2,0.4 3.6,2.6 3.2,4.7 -0.4,2.2 -2.6,3.6 -4.8,3.2 -23.6,-4.6 -48.2,-1.6 -70,8.6 -2,0.8 -4.2,-0.1 -5.1,-2.1 -0.9,-1.9 -0.2,-4.2 1.7,-5.3 23.4,-11 49.6,-14.2 75,-9.2 v 0 z m -121.6,9.2 c 1,0.4 1.9,1.2 2.3,2.3 0.4,1 0.4,2.2 0,3.2 -0.5,1 -1.4,1.8 -2.4,2.1 -1,0.3 -2.2,0.2 -3.2,-0.3 -21.8,-10.2 -46.3,-13.3 -70,-8.6 -2.2,0.4 -4.3,-1 -4.8,-3.2 -0.4,-2.2 1,-4.3 3.2,-4.7 25.3,-5 51.6,-1.7 75,9.2 v 0 z m 121.6,19.8 c 2.2,0.4 3.6,2.6 3.2,4.8 -0.4,2.2 -2.6,3.6 -4.8,3.2 -23.6,-4.6 -48.2,-1.6 -70,8.6 -2,0.8 -4.3,-0.1 -5.2,-2.1 -0.9,-1.9 -0.1,-4.2 1.7,-5.3 23.4,-11 49.6,-14.2 75,-9.3 v 0 z m -121.6,9.3 c 1.9,1 2.6,3.3 1.7,5.3 -0.9,1.9 -3.2,2.8 -5.2,2.1 -21.8,-10.2 -46.3,-13.3 -70,-8.6 -2.2,0.4 -4.3,-1 -4.8,-3.2 -0.4,-2.2 1,-4.3 3.2,-4.8 25.3,-5 51.6,-1.7 75,9.3 v 0 z M 139.2,226.8 v 173 c 0,1.4 0.7,2.7 2,3.5 1.2,0.7 2.7,0.8 4,0 34.9,-18.8 75,-25.3 114,-18.4 -45.4,2.1 -89.9,13.6 -130.6,33.8 V 231.2 c 2.1,-1 4.3,-1.9 6.4,-2.8 1.4,-0.6 2.8,-1.1 4.2,-1.7 v 0 z"
           id="path496" />
      </g>
      <rect
         style="fill:#000000"
         id="rect785"
         width="86.057259"
         height="105.96732"
         x="212.36761"
         y="195.09317" />
      <rect
         style="fill:#000000"
         id="rect809"
         width="73.878372"
         height="99.045731"
         x="323.52234"
         y="197.68555" />
    </g>
  </g>
</svg>
