<?xml version="1.0" encoding="UTF-8" standalone="no"?>
<svg
   id="Vrstva_1"
   viewBox="0 0 580.1 460.4"
   version="1.1"
   sodipodi:docname="Ikonky_mapa_kniha_tymova_studovna-08.svg"
   inkscape:version="1.1.1 (3bf5ae0d25, 2021-09-20)"
   xmlns:inkscape="http://www.inkscape.org/namespaces/inkscape"
   xmlns:sodipodi="http://sodipodi.sourceforge.net/DTD/sodipodi-0.dtd"
   xmlns="http://www.w3.org/2000/svg"
   xmlns:svg="http://www.w3.org/2000/svg">
  <sodipodi:namedview
     id="namedview13"
     pagecolor="#ffffff"
     bordercolor="#666666"
     borderopacity="1.0"
     inkscape:pageshadow="2"
     inkscape:pageopacity="0.0"
     inkscape:pagecheckerboard="0"
     showgrid="false"
     inkscape:zoom="1.2317542"
     inkscape:cx="69.007273"
     inkscape:cy="282.92982"
     inkscape:window-width="1920"
     inkscape:window-height="991"
     inkscape:window-x="-9"
     inkscape:window-y="-9"
     inkscape:window-maximized="1"
     inkscape:current-layer="Vrstva_1" />
  <defs
     id="defs4">
    <style
       id="style2">.cls-1,.cls-2{stroke-width:0px;}.cls-2{fill-rule:evenodd;}</style>
  </defs>
  <g
     id="g490"
     transform="translate(587.84239,-4.5925186)">
    <ellipse
       style="fill:#000000;stroke-width:1.55263"
       id="path234"
       cx="-285.88431"
       cy="235.36658"
       rx="213.55211"
       ry="212.40399" />
    <ellipse
       style="fill:#ffffff;stroke-width:1.01563"
       id="ellipse464"
       cx="-286.45837"
       cy="235.36655"
       rx="206.08928"
       ry="204.36707" />
  </g>
  <g
     id="g1791"
     transform="translate(-1.6237005,8.1185027)">
    <path
       class="cls-2"
       d="m 321.49378,341.99771 c 28.39125,1.45947 56.21968,9.45178 81.67175,23.49045 V 235.17872 c -1.37579,-0.69498 -2.68904,-1.38996 -4.06482,-2.01545 -0.87551,-0.41699 -1.68847,-0.76448 -2.56398,-1.11197 v 120.23217 c 0,1.04247 -0.50028,1.94595 -1.31324,2.50194 -0.81297,0.55599 -1.81354,0.48649 -2.56397,-0.0695 -21.76246,-12.99619 -46.83931,-17.44408 -71.16574,-12.71819 z m -16.82212,-2.84943 V 221.48755 c 10.25587,-9.17378 22.63795,-14.94215 35.70793,-16.74911 13.06998,-1.80696 26.32757,0.55599 38.27191,6.67185 V 329.9745 c -24.38896,-11.53673 -52.46753,-8.06182 -73.97984,9.10428 v 0 z M 225.62641,211.41029 V 329.9745 c 24.38896,-11.53673 52.46753,-8.06182 73.97985,9.17378 V 221.48755 c -10.25588,-9.17378 -22.63796,-14.94215 -35.70794,-16.74911 -13.06998,-1.73745 -26.32757,0.55599 -38.27191,6.67185 z m 158.15302,8.89579 c 1.00057,0.41699 2.00115,0.83398 3.00172,1.25097 1.62594,0.69498 3.12679,1.45946 4.69019,2.22395 v 123.91558 c -22.95064,-12.5792 -49.02806,-16.26262 -74.10492,-10.56376 19.63624,-10.91123 42.77449,-11.05024 62.5358,-0.41699 0.37521,0.278 0.8755,0.41699 1.31324,0.41699 1.3758,0 2.56397,-1.25096 2.56397,-2.84943 v -114.04681 0 z M 220.56101,334.35289 v 0 c 0,0.41699 0.0625,0.83398 0.25015,1.25097 0.62536,1.38997 2.12622,1.94596 3.37693,1.25098 19.82385,-10.77226 43.02463,-10.63325 62.7234,0.27798 -25.07685,-5.76835 -51.15428,-2.01544 -74.10491,10.56376 V 223.781 c 1.50086,-0.76449 3.06425,-1.52897 4.69018,-2.22395 1.00057,-0.41699 2.00115,-0.83398 3.00172,-1.25097 v 114.04681 0 z M 363.64291,232.1903 v 0 c 1.37579,0.27799 2.25129,1.73746 2.00115,3.26642 -0.25015,1.52896 -1.62593,2.50194 -3.00173,2.22395 -14.75844,-3.19693 -30.14225,-1.11198 -43.77505,5.97686 -1.25072,0.55599 -2.68904,-0.0695 -3.25186,-1.45947 -0.56282,-1.32046 -0.0625,-2.91893 1.06311,-3.68341 14.63337,-7.64482 31.01775,-9.86877 46.90185,-6.39385 v 0 z m -76.04353,6.39385 c 1.18819,0.69498 1.62594,2.29345 1.06312,3.68341 -0.56283,1.32047 -2.00115,1.94596 -3.25186,1.45947 -13.63281,-7.15834 -28.95408,-9.24329 -43.77506,-5.97686 -1.37579,0.27799 -2.68904,-0.69499 -3.00172,-2.22395 -0.25014,-1.52896 0.62536,-2.98843 2.00114,-3.33592 15.82156,-3.47492 32.26847,-1.18148 46.90185,6.39385 v 0 z m 76.04353,13.76067 c 1.37579,0.278 2.25129,1.80696 2.00115,3.33593 -0.25015,1.52896 -1.62593,2.50193 -3.00173,2.22395 -14.75844,-3.19693 -30.14225,-1.11198 -43.77505,5.97685 -1.25072,0.55599 -2.68904,-0.0695 -3.25186,-1.38997 -0.56282,-1.32046 -0.0625,-2.91893 1.06311,-3.68341 14.63337,-7.64482 31.01775,-9.86877 46.90185,-6.39385 v 0 z m -76.04353,6.39385 c 1.18819,0.69499 1.62594,2.29345 1.06312,3.68341 -0.56283,1.32047 -2.00115,1.94596 -3.25186,1.38997 -13.63281,-7.08883 -28.95408,-9.17379 -43.77506,-5.97686 -1.37579,0.278 -2.68904,-0.69498 -3.00172,-2.22394 -0.25014,-1.52897 0.62536,-2.98843 2.00114,-3.33593 15.82156,-3.47491 32.26847,-1.18147 46.90185,6.39385 v 0 z m 76.04353,13.76068 c 1.37579,0.27799 2.25129,1.80695 2.00115,3.26642 -0.25015,1.52897 -1.62593,2.50195 -3.00173,2.22395 -14.75844,-3.19693 -30.14225,-1.11197 -43.77505,5.97686 -1.25072,0.55598 -2.6265,-0.0695 -3.18933,-1.45947 -0.56281,-1.32047 -0.12507,-2.91892 1.06312,-3.68341 14.63337,-7.64482 31.01775,-9.86877 46.90184,-6.39385 v 0 z m -76.04353,6.39385 c 0.62536,0.27799 1.18819,0.83398 1.43833,1.59846 0.25014,0.69498 0.25014,1.52897 0,2.22394 -0.31268,0.69499 -0.8755,1.25098 -1.50086,1.45947 -0.62536,0.2085 -1.37579,0.139 -2.00115,-0.20849 -13.6328,-7.08883 -28.95407,-9.24328 -43.77505,-5.97686 -1.37578,0.278 -2.68904,-0.69498 -3.00172,-2.22395 -0.25014,-1.52896 0.62536,-2.98843 2.00114,-3.26642 15.82156,-3.47492 32.26847,-1.18147 46.90185,6.39385 v 0 z m 76.04353,13.76068 c 1.37579,0.27798 2.25129,1.80695 2.00115,3.33591 -0.25015,1.52897 -1.62593,2.50194 -3.00173,2.22395 -14.75844,-3.19692 -30.14225,-1.11198 -43.77505,5.97686 -1.25072,0.55599 -2.68904,-0.0695 -3.25186,-1.45946 -0.56282,-1.32047 -0.0625,-2.91894 1.06311,-3.68341 14.63337,-7.64483 31.01775,-9.86878 46.90185,-6.46335 v 0 z m -76.04353,6.46334 c 1.18819,0.69498 1.62594,2.29345 1.06312,3.68342 -0.56283,1.32047 -2.00115,1.94595 -3.25186,1.45946 -13.63281,-7.08883 -28.95408,-9.24328 -43.77506,-5.97686 -1.37579,0.278 -2.68904,-0.69498 -3.00172,-2.22395 -0.25014,-1.52896 0.62536,-2.98842 2.00114,-3.33592 15.82156,-3.47492 32.26847,-1.18147 46.90185,6.46335 v 0 z M 207.80371,231.9818 v 120.23217 c 0,0.97298 0.43776,1.87646 1.25072,2.43244 0.75043,0.48649 1.68846,0.55599 2.50143,0 21.82499,-13.06569 46.90185,-17.58308 71.29081,-12.7877 -28.39125,1.45947 -56.21968,9.45178 -81.67175,23.49045 V 235.03973 c 1.31325,-0.69499 2.68904,-1.32047 4.00229,-1.94595 0.8755,-0.41699 1.751,-0.76449 2.6265,-1.18148 v 0 z"
       id="path1250" />
    <rect
       style="fill:#000000;stroke-width:0.789925"
       id="rect1254"
       width="64.336258"
       height="88.445351"
       x="230.17845"
       y="221.91322" />
    <rect
       style="fill:#000000;stroke-width:0.789925"
       id="rect1256"
       width="55.231342"
       height="82.668251"
       x="313.27753"
       y="224.07693" />
  </g>
  <g
     id="g1626"
     transform="matrix(0.9188964,0,0,0.8862212,21.490241,23.396434)">
    <g
       id="g1523"
       transform="matrix(0.62031998,0,0,0.75957525,172.7756,53.08947)">
      <path
         class="cls-1"
         d="M 370.84005,110.7627 305.07381,76.343748 c -1.81474,-0.9706 -4.06502,-0.9706 -5.87976,0 L 233.42781,110.7627 c -1.30661,0.67196 -2.32287,1.86654 -2.90358,3.21045 -0.43554,0.82127 -0.7259,2.23984 -0.7259,2.98646 v 39.71992 c 0,3.80774 2.90359,6.86886 6.60566,6.86886 3.70207,0 6.60566,-3.06112 6.60566,-6.86886 v -31.65648 l 59.30576,25.83288 68.0891,-27.47543 c 2.39546,-0.9706 3.99243,-3.35977 4.13761,-6.12225 0.0726,-2.68781 -1.30661,-5.2263 -3.62948,-6.42089 z"
         id="path1519" />
      <path
         class="cls-1"
         d="m 302.17023,163.10042 c -0.7259,0 -1.37921,-0.14932 -2.03251,-0.44797 l -35.20599,-15.52959 v 16.94816 c 0,2.16518 1.16143,4.10638 2.97617,5.00232 9.1463,4.853 18.51037,10.82592 34.26233,10.82592 15.75195,0 25.18861,-5.97292 34.26232,-10.82592 1.81474,-0.9706 2.97617,-2.9118 2.97617,-5.00232 v -15.75358 l -35.27857,14.40967 c -0.58072,0.22399 -1.23403,0.37331 -1.88733,0.37331 z"
         id="path1521" />
    </g>
    <g
       id="g1609"
       transform="matrix(0.62031998,0,0,0.75957525,62.363968,54.71317)">
      <path
         class="cls-1"
         d="M 370.84005,110.7627 305.07381,76.343748 c -1.81474,-0.9706 -4.06502,-0.9706 -5.87976,0 L 233.42781,110.7627 c -1.30661,0.67196 -2.32287,1.86654 -2.90358,3.21045 -0.43554,0.82127 -0.7259,2.23984 -0.7259,2.98646 v 39.71992 c 0,3.80774 2.90359,6.86886 6.60566,6.86886 3.70207,0 6.60566,-3.06112 6.60566,-6.86886 v -31.65648 l 59.30576,25.83288 68.0891,-27.47543 c 2.39546,-0.9706 3.99243,-3.35977 4.13761,-6.12225 0.0726,-2.68781 -1.30661,-5.2263 -3.62948,-6.42089 z"
         id="path1605" />
      <path
         class="cls-1"
         d="m 302.17023,163.10042 c -0.7259,0 -1.37921,-0.14932 -2.03251,-0.44797 l -35.20599,-15.52959 v 16.94816 c 0,2.16518 1.16143,4.10638 2.97617,5.00232 9.1463,4.853 18.51037,10.82592 34.26233,10.82592 15.75195,0 25.18861,-5.97292 34.26232,-10.82592 1.81474,-0.9706 2.97617,-2.9118 2.97617,-5.00232 v -15.75358 l -35.27857,14.40967 c -0.58072,0.22399 -1.23403,0.37331 -1.88733,0.37331 z"
         id="path1607" />
    </g>
    <g
       id="g1615"
       transform="matrix(0.62031998,0,0,0.75957525,115.94608,-15.917803)">
      <path
         class="cls-1"
         d="M 370.84005,110.7627 305.07381,76.343748 c -1.81474,-0.9706 -4.06502,-0.9706 -5.87976,0 L 233.42781,110.7627 c -1.30661,0.67196 -2.32287,1.86654 -2.90358,3.21045 -0.43554,0.82127 -0.7259,2.23984 -0.7259,2.98646 v 39.71992 c 0,3.80774 2.90359,6.86886 6.60566,6.86886 3.70207,0 6.60566,-3.06112 6.60566,-6.86886 v -31.65648 l 59.30576,25.83288 68.0891,-27.47543 c 2.39546,-0.9706 3.99243,-3.35977 4.13761,-6.12225 0.0726,-2.68781 -1.30661,-5.2263 -3.62948,-6.42089 z"
         id="path1611" />
      <path
         class="cls-1"
         d="m 302.17023,163.10042 c -0.7259,0 -1.37921,-0.14932 -2.03251,-0.44797 l -35.20599,-15.52959 v 16.94816 c 0,2.16518 1.16143,4.10638 2.97617,5.00232 9.1463,4.853 18.51037,10.82592 34.26233,10.82592 15.75195,0 25.18861,-5.97292 34.26232,-10.82592 1.81474,-0.9706 2.97617,-2.9118 2.97617,-5.00232 v -15.75358 l -35.27857,14.40967 c -0.58072,0.22399 -1.23403,0.37331 -1.88733,0.37331 z"
         id="path1613" />
    </g>
  </g>
</svg>
