<?xml version="1.0" encoding="UTF-8" standalone="no"?>
<svg
   id="Vrstva_1"
   viewBox="0 0 580.1 460.4"
   version="1.1"
   sodipodi:docname="Ikonky_mapa_kniha-05_2.svg"
   inkscape:version="1.1.1 (3bf5ae0d25, 2021-09-20)"
   xmlns:inkscape="http://www.inkscape.org/namespaces/inkscape"
   xmlns:sodipodi="http://sodipodi.sourceforge.net/DTD/sodipodi-0.dtd"
   xmlns="http://www.w3.org/2000/svg"
   xmlns:svg="http://www.w3.org/2000/svg">
  <sodipodi:namedview
     id="namedview9"
     pagecolor="#ffffff"
     bordercolor="#666666"
     borderopacity="1.0"
     inkscape:pageshadow="2"
     inkscape:pageopacity="0.0"
     inkscape:pagecheckerboard="0"
     showgrid="false"
     inkscape:zoom="1.2317542"
     inkscape:cx="240.30768"
     inkscape:cy="259.38616"
     inkscape:window-width="1920"
     inkscape:window-height="991"
     inkscape:window-x="-9"
     inkscape:window-y="-9"
     inkscape:window-maximized="1"
     inkscape:current-layer="Vrstva_1" />
  <defs
     id="defs4">
    <style
       id="style2">.cls-1{fill-rule:evenodd;stroke-width:0px;}</style>
  </defs>
  <g
     id="g263">
    <g
       id="g731"
       transform="translate(-2.3853333,0.60326496)">
      <g
         id="g490"
         transform="translate(587.84239,-4.5925186)">
        <ellipse
           style="fill:#000000;stroke-width:1.55263"
           id="path234"
           cx="-285.88431"
           cy="235.36658"
           rx="213.55211"
           ry="212.40399" />
        <ellipse
           style="fill:#ffffff;stroke-width:1.01563"
           id="ellipse464"
           cx="-286.45837"
           cy="235.36655"
           rx="206.08928"
           ry="204.36707" />
      </g>
    </g>
    <g
       id="g33"
       transform="matrix(0.72810675,0,0,0.80557217,88.902009,38.895168)">
      <path
         class="cls-1"
         d="m 330.7,338.2 c 59.6,2.7 118,17.8 171.4,44.4 V 136.5 c -2.8,-1.3 -5.7,-2.6 -8.6,-3.8 -1.8,-0.7 -3.6,-1.4 -5.4,-2.1 v 227.1 c 0,1.9 -1,3.7 -2.7,4.7 -1.7,1 -3.8,0.9 -5.4,-0.2 -45.7,-24.5 -98.3,-33 -149.4,-24 v 0 z m -35.3,-5.4 V 110.5 c 21.5,-17.3 47.5,-28.2 74.9,-31.6 27.4,-3.4 55.3,1 80.4,12.6 V 315.4 C 399.5,293.6 340.6,300.1 295.4,332.6 v 0 z M 129.4,91.5 v 224 c 51.2,-21.8 110.1,-15.3 155.3,17.3 V 110.5 c -21.5,-17.3 -47.5,-28.2 -75,-31.6 -27.4,-3.3 -55.3,1 -80.3,12.6 z m 331.9,16.9 c 2.2,0.7 4.3,1.5 6.4,2.4 3.4,1.3 6.6,2.7 9.8,4.2 v 234 c -48.2,-23.8 -102.9,-30.8 -155.6,-19.9 41.3,-20.6 89.8,-20.9 131.3,-0.8 0.8,0.5 1.8,0.8 2.8,0.8 2.9,0 5.3,-2.4 5.3,-5.3 v -215.5 0 z M 118.8,323.7 v 0 c 0,0.8 0.2,1.6 0.5,2.3 1.3,2.6 4.5,3.7 7.1,2.4 41.6,-20.3 90.3,-20.1 131.7,0.5 C 205.5,318 150.7,325.1 102.5,348.8 V 114.9 c 3.2,-1.5 6.5,-2.9 9.8,-4.2 2.1,-0.8 4.2,-1.6 6.4,-2.4 v 215.4 0 z M 419.1,130.8 v 0 c 2.9,0.5 4.8,3.3 4.2,6.2 -0.6,2.9 -3.4,4.8 -6.2,4.2 -31,-6.1 -63.2,-2.2 -91.9,11.3 -2.6,1 -5.6,-0.2 -6.8,-2.7 -1.2,-2.5 -0.2,-5.6 2.3,-6.9 30.7,-14.4 65.1,-18.7 98.4,-12.1 z m -159.6,12.1 c 2.5,1.4 3.5,4.4 2.3,6.9 -1.2,2.5 -4.2,3.7 -6.8,2.7 -28.6,-13.5 -60.8,-17.4 -91.9,-11.3 -2.9,0.5 -5.7,-1.3 -6.2,-4.2 -0.6,-2.9 1.3,-5.7 4.2,-6.2 33.2,-6.5 67.7,-2.3 98.4,12.1 z m 159.6,26 c 2.9,0.6 4.8,3.4 4.2,6.2 -0.6,2.9 -3.4,4.8 -6.2,4.2 -31,-6.1 -63.2,-2.1 -91.9,11.3 -2.6,1 -5.6,-0.2 -6.8,-2.7 -1.2,-2.5 -0.2,-5.6 2.3,-6.9 30.7,-14.4 65.1,-18.7 98.4,-12.1 z M 259.5,181 c 2.5,1.4 3.5,4.4 2.3,6.9 -1.2,2.5 -4.2,3.7 -6.8,2.7 -28.6,-13.4 -60.8,-17.4 -91.9,-11.3 -2.9,0.6 -5.7,-1.3 -6.2,-4.2 -0.6,-2.9 1.3,-5.7 4.2,-6.2 33.2,-6.5 67.7,-2.3 98.4,12.1 z m 159.6,26 c 2.9,0.6 4.8,3.4 4.2,6.2 -0.6,2.9 -3.4,4.8 -6.2,4.2 -31,-6.1 -63.2,-2.1 -91.9,11.3 -2.6,1 -5.5,-0.2 -6.7,-2.7 -1.2,-2.5 -0.2,-5.5 2.2,-6.9 30.7,-14.4 65.1,-18.7 98.4,-12.1 z m -159.6,12.1 c 1.4,0.5 2.5,1.6 3,3 0.5,1.4 0.5,2.9 -0.1,4.2 -0.6,1.3 -1.8,2.4 -3.2,2.8 -1.4,0.4 -2.9,0.3 -4.2,-0.4 -28.6,-13.4 -60.8,-17.4 -91.9,-11.3 -2.9,0.6 -5.7,-1.3 -6.2,-4.2 -0.6,-2.9 1.3,-5.7 4.2,-6.2 33.2,-6.5 67.7,-2.3 98.4,12.1 z m 159.6,26 c 2.9,0.6 4.8,3.4 4.2,6.2 -0.6,2.9 -3.4,4.8 -6.2,4.2 -31,-6.1 -63.2,-2.1 -91.9,11.3 -2.6,1 -5.6,-0.2 -6.8,-2.7 -1.2,-2.5 -0.2,-5.6 2.3,-6.9 30.7,-14.4 65.1,-18.7 98.4,-12.2 v 0 z m -159.6,12.2 c 2.5,1.3 3.5,4.4 2.3,6.9 -1.2,2.5 -4.2,3.7 -6.8,2.7 -28.6,-13.4 -60.8,-17.4 -91.9,-11.3 -2.9,0.6 -5.7,-1.3 -6.2,-4.2 -0.6,-2.9 1.3,-5.7 4.2,-6.2 33.2,-6.5 67.7,-2.3 98.4,12.2 v 0 z M 92,130.5 v 227 c 0,1.9 1,3.6 2.6,4.6 1.6,0.9 3.6,1 5.2,0.1 45.8,-24.7 98.5,-33.2 149.7,-24.2 -59.6,2.7 -118,17.8 -171.4,44.4 V 136.3 c 2.8,-1.3 5.6,-2.5 8.4,-3.7 1.8,-0.8 3.7,-1.5 5.5,-2.2 v 0 z"
         id="path31" />
    </g>
    <rect
       style="fill:#000000"
       id="rect137"
       width="104.37594"
       height="130.25749"
       x="303.98474"
       y="127.9109" />
    <rect
       style="fill:#000000"
       id="rect161"
       width="85.244278"
       height="150.19231"
       x="199.71516"
       y="120.96569" />
  </g>
</svg>
