<?xml version="1.0" encoding="UTF-8" standalone="no"?>
<svg
   id="Vrstva_1"
   viewBox="0 0 580.1 460.4"
   version="1.1"
   sodipodi:docname="Ikonky_mapa_studovna_06.svg"
   inkscape:version="1.1.1 (3bf5ae0d25, 2021-09-20)"
   xmlns:inkscape="http://www.inkscape.org/namespaces/inkscape"
   xmlns:sodipodi="http://sodipodi.sourceforge.net/DTD/sodipodi-0.dtd"
   xmlns="http://www.w3.org/2000/svg"
   xmlns:svg="http://www.w3.org/2000/svg">
  <sodipodi:namedview
     id="namedview11"
     pagecolor="#ffffff"
     bordercolor="#666666"
     borderopacity="1.0"
     inkscape:pageshadow="2"
     inkscape:pageopacity="0.0"
     inkscape:pagecheckerboard="0"
     showgrid="false"
     inkscape:zoom="0.87098177"
     inkscape:cx="203.21895"
     inkscape:cy="134.90524"
     inkscape:window-width="1920"
     inkscape:window-height="991"
     inkscape:window-x="-9"
     inkscape:window-y="-9"
     inkscape:window-maximized="1"
     inkscape:current-layer="Vrstva_1" />
  <defs
     id="defs4">
    <style
       id="style2">.cls-1{stroke-width:0px;}</style>
  </defs>
  <g
     id="g127">
    <g
       id="g731"
       transform="translate(-9.1850235,-2.2962555)">
      <g
         id="g490"
         transform="translate(587.84239,-4.5925186)">
        <ellipse
           style="fill:#000000;stroke-width:1.55263"
           id="path234"
           cx="-285.88431"
           cy="235.36658"
           rx="213.55211"
           ry="212.40399" />
        <ellipse
           style="fill:#ffffff;stroke-width:1.01563"
           id="ellipse464"
           cx="-286.45837"
           cy="235.36655"
           rx="206.08928"
           ry="204.36707" />
      </g>
    </g>
    <g
       id="g38"
       transform="translate(4.9366612,-13.247131)">
      <path
         class="cls-1"
         d="M 440.8,193.9 296.5,120.4 c -4.1,-2.1 -8.8,-2.1 -12.9,0 l -144.3,73.5 c -2.9,1.5 -5.1,4 -6.4,6.8 -0.9,1.8 -1.5,4.8 -1.5,6.3 v 84.7 c 0,8.1 6.5,14.7 14.4,14.7 7.9,0 14.4,-6.6 14.4,-14.7 v -67.6 l 130.1,55.2 149.5,-58.7 c 5.3,-2.1 8.8,-7.2 9.1,-13 0.2,-5.8 -2.9,-11.2 -8,-13.8 z"
         id="path34" />
      <path
         class="cls-1"
         d="m 290.1,305.5 c -1.5,0 -3.1,-0.3 -4.5,-0.9 l -77.2,-33.1 v 36.2 c 0,4.5 2.5,8.7 6.5,10.7 20,10.3 40.6,23.1 75.2,23.1 34.6,0 55.3,-12.8 75.2,-23.1 4,-2 6.5,-6.2 6.5,-10.7 V 274 l -77.5,30.7 c -1.4,0.5 -2.8,0.8 -4.2,0.8 z"
         id="path36" />
    </g>
  </g>
</svg>
